<?xml version="1.0" standalone="no"?>
<!DOCTYPE svg PUBLIC "-//W3C//DTD SVG 20010904//EN"
 "http://www.w3.org/TR/2001/REC-SVG-20010904/DTD/svg10.dtd">
<svg version="1.0" xmlns="http://www.w3.org/2000/svg"
 width="512.000000pt" height="512.000000pt" viewBox="0 0 512.000000 512.000000"
 preserveAspectRatio="xMidYMid meet">
<metadata>
Created by potrace 1.11, written by Peter Selinger 2001-2013
</metadata>
<g transform="translate(0.000000,512.000000) scale(0.100000,-0.100000)"
fill="#000000" stroke="none">
<path d="M2943 4461 c-17 -14 -39 -77 -92 -257 -76 -264 -392 -1358 -563
-1949 -60 -209 -113 -393 -119 -410 -5 -16 -38 -131 -74 -255 -35 -124 -100
-351 -144 -504 -45 -154 -81 -294 -81 -311 0 -46 26 -64 137 -96 115 -34 143
-35 173 -11 24 19 20 7 225 717 69 237 148 509 176 605 28 96 54 189 59 205 7
29 114 400 396 1375 74 256 155 535 180 621 60 209 56 219 -107 263 -114 31
-137 32 -166 7z"/>
<path d="M1370 3953 c-26 -9 -1341 -1327 -1355 -1358 -9 -20 -10 -37 -4 -55
15 -40 1338 -1358 1370 -1365 40 -9 74 13 161 102 75 78 95 114 84 150 -3 10
-258 270 -566 578 l-560 560 565 565 c416 416 565 571 565 588 0 37 -24 73
-102 149 -82 81 -118 100 -158 86z"/>
<path d="M3689 3946 c-28 -14 -161 -144 -184 -180 -34 -51 -26 -60 560 -646
l555 -555 -555 -555 c-305 -305 -559 -567 -564 -582 -15 -41 -2 -66 82 -151
96 -96 118 -111 157 -102 23 5 192 169 699 676 702 701 702 701 668 752 -27
42 -1331 1339 -1355 1348 -30 12 -32 11 -63 -5z"/>
</g>
</svg>
